<svg width="104" height="25" viewBox="0 0 104 25" fill="none" xmlns="http://www.w3.org/2000/svg">
<path d="M21.568 0.32L14.368 18.176C13.4507 20.4587 12.3093 22.0587 10.944 22.976C9.57867 23.8933 7.904 24.352 5.92 24.352C4.93867 24.352 3.94667 24.2027 2.944 23.904C1.96267 23.6267 1.184 23.2533 0.608 22.784L3.008 17.824C3.37067 18.1013 3.776 18.3253 4.224 18.496C4.69333 18.6667 5.14133 18.752 5.568 18.752C6.35733 18.752 6.95467 18.5173 7.36 18.048L0 0.32H7.424L11.04 9.696L14.72 0.32H21.568Z" fill="white"/>
<path d="M37.853 18.144C35.9117 18.144 34.1623 17.76 32.605 16.992C31.069 16.2027 29.8637 15.1253 28.989 13.76C28.1143 12.3733 27.677 10.8053 27.677 9.056C27.677 7.30667 28.1143 5.74933 28.989 4.384C29.8637 2.99733 31.069 1.92 32.605 1.152C34.1623 0.384 35.9117 0 37.853 0C39.8157 0 41.565 0.384 43.101 1.152C44.6583 1.92 45.8637 2.99733 46.717 4.384C47.5917 5.74933 48.029 7.30667 48.029 9.056C48.029 10.8053 47.5917 12.3733 46.717 13.76C45.8637 15.1253 44.6583 16.2027 43.101 16.992C41.565 17.76 39.8157 18.144 37.853 18.144ZM37.853 12.512C38.685 12.512 39.3677 12.2133 39.901 11.616C40.4343 10.9973 40.701 10.144 40.701 9.056C40.701 7.968 40.4343 7.12533 39.901 6.528C39.3677 5.93067 38.685 5.632 37.853 5.632C37.021 5.632 36.3383 5.93067 35.805 6.528C35.2717 7.12533 35.005 7.968 35.005 9.056C35.005 10.144 35.2717 10.9973 35.805 11.616C36.3383 12.2133 37.021 12.512 37.853 12.512Z" fill="white"/>
<path d="M76.2445 0.32V14.336C76.2445 17.664 75.3165 20.16 73.4605 21.824C71.6258 23.5093 69.0018 24.352 65.5885 24.352C63.8392 24.352 62.2072 24.16 60.6925 23.776C59.1778 23.4133 57.8872 22.88 56.8205 22.176L59.2525 17.248C59.9352 17.76 60.7992 18.176 61.8445 18.496C62.8898 18.816 63.8925 18.976 64.8525 18.976C66.3032 18.976 67.3592 18.6667 68.0205 18.048C68.6818 17.4293 69.0125 16.5227 69.0125 15.328V15.008C67.9245 16.2453 66.3138 16.864 64.1805 16.864C62.6872 16.864 61.2898 16.5227 59.9885 15.84C58.7085 15.136 57.6845 14.144 56.9165 12.864C56.1485 11.5627 55.7645 10.08 55.7645 8.416C55.7645 6.752 56.1485 5.28 56.9165 4C57.6845 2.72 58.7085 1.73867 59.9885 1.056C61.2898 0.352 62.6872 0 64.1805 0C66.5698 0 68.2978 0.768 69.3645 2.304V0.32H76.2445ZM66.1005 11.232C66.9538 11.232 67.6578 10.976 68.2125 10.464C68.7885 9.93067 69.0765 9.248 69.0765 8.416C69.0765 7.584 68.7885 6.912 68.2125 6.4C67.6578 5.888 66.9538 5.632 66.1005 5.632C65.2258 5.632 64.5005 5.888 63.9245 6.4C63.3698 6.912 63.0925 7.584 63.0925 8.416C63.0925 9.248 63.3805 9.93067 63.9565 10.464C64.5325 10.976 65.2472 11.232 66.1005 11.232Z" fill="white"/>
<path d="M93.6825 0C96.7545 0 99.1012 0.693334 100.723 2.08C102.344 3.44533 103.155 5.55733 103.155 8.416V17.824H96.4345V15.52C95.6025 17.2693 93.9492 18.144 91.4745 18.144C90.0878 18.144 88.9038 17.9093 87.9225 17.44C86.9625 16.9493 86.2265 16.2987 85.7145 15.488C85.2238 14.656 84.9785 13.728 84.9785 12.704C84.9785 10.976 85.6398 9.664 86.9625 8.768C88.2852 7.872 90.2905 7.424 92.9785 7.424H95.8905C95.6558 6.05867 94.5572 5.376 92.5945 5.376C91.8052 5.376 91.0052 5.504 90.1945 5.76C89.3838 5.99467 88.6905 6.32533 88.1145 6.752L85.8105 1.984C86.8132 1.36533 88.0185 0.885333 89.4265 0.544001C90.8558 0.181334 92.2745 0 93.6825 0ZM93.6505 13.792C94.1625 13.792 94.6212 13.6533 95.0265 13.376C95.4318 13.0987 95.7305 12.6827 95.9225 12.128V10.912H94.1305C92.6585 10.912 91.9225 11.4027 91.9225 12.384C91.9225 12.7893 92.0718 13.1307 92.3705 13.408C92.6905 13.664 93.1172 13.792 93.6505 13.792Z" fill="white"/>
</svg>
